<svg xmlns="http://www.w3.org/2000/svg" width="24" height="24" viewBox="0 0 24 24">
    <path fill="none" d="M0 0h24v24H0zm0 0h24v24H0z"/>
    <path fill="#373d20" d="M19 11h-1.7a5.114 5.114 0 0 1-.43 2.05l1.23 1.23A6.585 6.585 0 0 0 19 11zm-4.02.17c0-.06.02-.11.02-.17V5a3 3 0 0 0-6 0v.18zM4.27 3L3 4.27l6.01 6.01V11A2.987 2.987 0 0 0 12 14a2.821 2.821 0 0 0 .65-.08l1.66 1.66a5.5 5.5 0 0 1-2.31.52A5.189 5.189 0 0 1 6.7 11H5a6.984 6.984 0 0 0 6 6.72V21h2v-3.28a7.013 7.013 0 0 0 2.54-.9L19.73 21 21 19.73z"/>
</svg>
