<svg xmlns="http://www.w3.org/2000/svg" width="50" height="50" viewBox="0 0 50 50">
    <defs>
        <clipPath id="zpyiaarrna">
            <path fill="none" d="M0 0H50V50H0z" transform="translate(173 112)"/>
        </clipPath>
    </defs>
    <g clip-path="url(#zpyiaarrna)" transform="translate(-173 -112)">
        <path fill="#253251" d="M6.219-3718H0v-29.3l22.271-15.7 22.029 15.694v29.3H30.607a.979.979 0 0 0 .14-.4l.042-.327a8.4 8.4 0 0 0 .1-1.2 12.538 12.538 0 0 0-.087-1.412h8.533a.969.969 0 0 0 .958-.857l.042-.323a8.531 8.531 0 0 0 .106-1.21 12.591 12.591 0 0 0-2.324-7.32 12.522 12.522 0 0 0-5.917-4.545 8.426 8.426 0 0 0 2.936-3 8.411 8.411 0 0 0 1.118-4.194 8.344 8.344 0 0 0-8.285-8.384 8.3 8.3 0 0 0-7.147 4.164 8.137 8.137 0 0 0-2.405-.363 8.344 8.344 0 0 0-8.285 8.383 8.414 8.414 0 0 0 1.118 4.194 8.42 8.42 0 0 0 2.934 3 12.661 12.661 0 0 0-8.25 11.868 8.654 8.654 0 0 0 .105 1.2l.042.327a.979.979 0 0 0 .14.4zm32.274-5.3h-8.056a12.613 12.613 0 0 0-7.791-8.5 8.343 8.343 0 0 0 2.376-2.154l.172-.071a10.5 10.5 0 0 1 2.772-.385 10.627 10.627 0 0 1 10.552 10.676 4.177 4.177 0 0 1-.025.435zm-10.526-13.066a6.162 6.162 0 0 1-1.62-.225 8.425 8.425 0 0 0 .353-2.4 8.44 8.44 0 0 0-4.106-7.226 6.318 6.318 0 0 1 5.373-3.006 6.4 6.4 0 0 1 6.355 6.431 6.4 6.4 0 0 1-6.356 6.428z" transform="translate(176 3877)"/>
    </g>
</svg>
