<svg xmlns="http://www.w3.org/2000/svg" width="60" height="60" viewBox="0 0 60 60">
    <rect width="60" height="60" fill="#373d20" rx="4"/>
    <g>
        <path fill="none" d="M0 0h36v36H0zm0 0h36v36H0z" transform="translate(12 12)"/>
        <path fill="#fff" d="M27 15.5h-2.55a7.671 7.671 0 0 1-.645 3.075l1.845 1.845A9.878 9.878 0 0 0 27 15.5zm-6.03.255c0-.09.03-.165.03-.255v-9a4.5 4.5 0 1 0-9 0v.27zM4.9 3.5L3 5.405l9.015 9.015v1.08A4.481 4.481 0 0 0 16.5 20a4.232 4.232 0 0 0 .975-.12l2.49 2.49a8.247 8.247 0 0 1-3.465.78 7.783 7.783 0 0 1-7.95-7.65H6a10.476 10.476 0 0 0 9 10.08v4.92h3v-4.92a10.519 10.519 0 0 0 3.81-1.35l6.285 6.27L30 28.595z" transform="translate(12 12) translate(1.5 1)"/>
    </g>
</svg>
