<svg xmlns="http://www.w3.org/2000/svg" width="60" height="60" viewBox="0 0 60 60">
    <rect width="60" height="60" fill="#717744" rx="4"/>
    <g>
        <path fill="none" d="M0 0h36v36H0z" transform="translate(12 12)"/>
        <path fill="#fff" d="M22 7l-2.13 2.13-2.385-2.385V23.5h-2.97V6.745L12.13 9.13 10 7l6-6zm6 7.5V31a3.009 3.009 0 0 1-3 3H7a3 3 0 0 1-3-3V14.5a2.99 2.99 0 0 1 3-3h4.5v3H7V31h18V14.5h-4.5v-3H25a3 3 0 0 1 3 3z" transform="translate(12 12) translate(2 .5)"/>
    </g>
</svg>
