<svg xmlns="http://www.w3.org/2000/svg" width="60" height="60" viewBox="0 0 60 60">
    <rect width="60" height="60" fill="#9a9a9a" rx="4"/>
    <g>
        <path fill="none" d="M0 0h36v36H0z" transform="translate(12 12)"/>
        <path fill="#fff" d="M15.5 20a4.481 4.481 0 0 0 4.485-4.5l.015-9a4.5 4.5 0 0 0-9 0v9a4.494 4.494 0 0 0 4.5 4.5zm7.95-4.5a7.783 7.783 0 0 1-7.95 7.65 7.783 7.783 0 0 1-7.95-7.65H5a10.476 10.476 0 0 0 9 10.08v4.92h3v-4.92a10.451 10.451 0 0 0 9-10.08z" transform="translate(12 12) translate(2.5 1)"/>
    </g>
</svg>
