<svg xmlns="http://www.w3.org/2000/svg" width="100" height="100" viewBox="0 0 100 100">
    <defs>
        <style>
            .cls-1{fill:none}
        </style>
    </defs>
    <g id="img_scan-qrcode" transform="translate(-1505 -295)">
        <g id="Group_5225" transform="translate(1530 318.5)">
            <g id="qr_code_scanner_black_48dp">
                <path id="Rectangle_1553" d="M0 0H48V48H0z" class="cls-1"/>
                <path id="Path_12714" fill="#253251" d="M16.974 10.985v5.99h-5.99v-5.99h5.99m2.995-2.995H7.99v11.98h11.98V7.99zm-2.995 18.967v5.99h-5.99v-5.99h5.99m2.995-2.995H7.99v11.98h11.98v-11.98zm12.978-12.977v5.99h-5.99v-5.99h5.99m2.995-2.995h-11.98v11.98h11.98V7.99zm-11.98 15.972h2.995v2.995h-2.995zm2.995 2.995h2.995v2.995h-2.995zm2.995-2.995h2.995v2.995h-2.995zm-5.99 5.99h2.995v2.995h-2.995zm2.995 2.995h2.995v2.995h-2.995zm2.995-2.995h2.995v2.995h-2.995zm11.98-17.969h-3.993v-5.99h-5.99V2h9.983zM2 41.932h9.983v-3.993h-5.99v-5.99H2zM2 2v9.983h3.993v-5.99h5.99V2z" transform="translate(1.993 1.993)"/>
            </g>
            <path id="Path_12759" fill="#717744" d="M17.806 8.88a8.9 8.9 0 1 0-11.384 8.565l.735.732-1.429 1.436a.16.16 0 0 0 0 .225l1.436 1.428L5.737 22.7a.16.16 0 0 0 0 .225l1.436 1.428-1.428 1.44a.159.159 0 0 0 0 .225l1.4 1.391-1.4 1.473a.159.159 0 0 0 .006.225l3.1 3.081a.158.158 0 0 0 .108.046.16.16 0 0 0 .112-.047l3.852-3.873a.159.159 0 0 0 .046-.112l-.03-11.383a8.849 8.849 0 0 0 4.867-7.939zm-7.318-1.564a2.185 2.185 0 1 1-.08-3.089 2.185 2.185 0 0 1 .08 3.089z" transform="rotate(180 25 26.26)"/>
        </g>
        <path id="Rectangle_1555" d="M0 0H100V100H0z" class="cls-1" transform="translate(1505 295)"/>
    </g>
</svg>
