<svg xmlns="http://www.w3.org/2000/svg" width="50" height="50" viewBox="0 0 50 50">
    <g>
        <path fill="none" d="M0 0H50V50H0z" transform="translate(-39 -40) translate(39 40)"/>
        <g>
            <path fill="#16263f" d="M1708.371 2114.478h4.479v-10.685a4.285 4.285 0 0 0-4.272-4.272h-2.136v-4.273a10.681 10.681 0 1 0-21.361 0v4.273h-2.136a4.285 4.285 0 0 0-4.272 4.272v21.361a4.285 4.285 0 0 0 4.272 4.272h19.1v-8.621zm-19.232-19.229a6.622 6.622 0 1 1 13.243 0v4.273h-13.243zm6.621 23.5a4.272 4.272 0 1 1 4.272-4.271 4.284 4.284 0 0 1-4.271 4.268z" transform="translate(-39 -40) translate(42 40) translate(-1678.672 -2084.568)"/>
            <path fill="#ac2020" d="M1719.551 2119.6h-7.694l-5.435 5.436v7.693l5.435 5.436h7.694l5.435-5.436v-7.693zm-2.44 9.282l4.174 4.175-1.406 1.406-4.175-4.174-4.174 4.174-1.407-1.406 4.175-4.175-4.175-4.174 1.407-1.407 4.174 4.175 4.175-4.175 1.406 1.407z" transform="translate(-39 -40) translate(42 40) translate(-1681.525 -2088.17)"/>
        </g>
    </g>
</svg>
