<svg xmlns="http://www.w3.org/2000/svg" width="60" height="60" viewBox="0 0 60 60">
    <rect width="60" height="60" fill="#373d20" rx="4"/>
    <g>
        <path fill="none" d="M0 0h36v36H0zm0 0h36v36H0z" transform="translate(12 12)"/>
        <path fill="#fff" d="M30.5 8.75l-6 6V9.5A1.5 1.5 0 0 0 23 8h-9.27L30.5 24.77zM3.905 2L2 3.905 6.1 8H5a1.5 1.5 0 0 0-1.5 1.5v15A1.5 1.5 0 0 0 5 26h18a1.454 1.454 0 0 0 .81-.27l4.785 4.77 1.905-1.905z" transform="translate(12 12) translate(1 1)"/>
    </g>
</svg>
