<svg xmlns="http://www.w3.org/2000/svg" width="50" height="50" viewBox="0 0 50 50">
    <defs>
        <clipPath id="esl15xgsqa">
            <path fill="none" d="M0 0H50V50H0z" transform="translate(176 124)"/>
        </clipPath>
    </defs>
    <g clip-path="url(#esl15xgsqa)" transform="translate(-176 -124)">
        <g>
            <path fill="#253251" d="M33.052 40.633H2.737A2.732 2.732 0 0 1 0 37.911v-4.723a11.387 11.387 0 0 1 11.407-11.341 2.2 2.2 0 0 1 1.8.952 5.771 5.771 0 0 0 9.379 0 2.2 2.2 0 0 1 1.8-.953 11.442 11.442 0 0 1 5.692 1.515 10.915 10.915 0 0 0-.12 12.607 11.019 11.019 0 0 0 4.94 3.956 2.737 2.737 0 0 1-1.846.709zM17.895 18.787a7.743 7.743 0 0 1-7.756-7.712V7.712a7.756 7.756 0 0 1 15.512 0v3.362a7.743 7.743 0 0 1-7.756 7.713z" transform="translate(176 129)"/>
            <path fill="#717744" d="M20.3 10.123a10.149 10.149 0 1 0-12.979 9.764l.838.834-1.629 1.638a.182.182 0 0 0 0 .257l1.637 1.628-1.627 1.637a.182.182 0 0 0 0 .257l1.637 1.628L6.549 29.4a.181.181 0 0 0 0 .257l1.594 1.586-1.593 1.682a.182.182 0 0 0 .007.256l3.53 3.512a.18.18 0 0 0 .123.053.182.182 0 0 0 .128-.054l4.392-4.415a.181.181 0 0 0 .052-.128l-.034-12.977a10.088 10.088 0 0 0 5.552-9.049zm-8.344-1.782a2.491 2.491 0 1 1-.092-3.522 2.49 2.49 0 0 1 .092 3.522z" transform="rotate(180 113 84.437)"/>
        </g>
    </g>
</svg>
