<svg xmlns="http://www.w3.org/2000/svg" width="100" height="100" viewBox="0 0 100 100">
    <defs>
        <style>
            .cls-1{fill:none}
        </style>
    </defs>
    <g id="ic_sip-id" transform="translate(-1517.169 -2064.545)">
        <path id="Rectangle_1521" d="M0 0H100V100H0z" class="cls-1" transform="translate(1517.169 2064.545)"/>
        <g id="Group_5241" transform="translate(-5069.831 1538.545)">
            <path id="Path_10537" d="M0 0h54v54H0z" class="cls-1" transform="translate(6610 549)"/>
            <path id="Path_10538" fill="#16263f" d="M41.25 31.125a25.561 25.561 0 0 1-8.033-1.283 2.246 2.246 0 0 0-2.272.54L26 35.333a33.852 33.852 0 0 1-14.832-14.828l4.95-4.972a2.2 2.2 0 0 0 .54-2.25 25.561 25.561 0 0 1-1.283-8.033A2.257 2.257 0 0 0 13.125 3H5.25A2.257 2.257 0 0 0 3 5.25 38.247 38.247 0 0 0 41.25 43.5a2.257 2.257 0 0 0 2.25-2.25v-7.875a2.257 2.257 0 0 0-2.25-2.25z" transform="translate(6613.75 552.75)"/>
            <path id="Path_12771" fill="#717744" d="M34.5 3h-2.25v11.25h2.25zM30 7.5h-4.5V5.25H30V3h-6.75v6.75h4.5V12h-4.5v2.25H30zM36.75 3v11.25H39v-4.5h4.5V3zm4.5 4.5H39V5.25h2.25z" transform="translate(6613.75 552.75)"/>
        </g>
    </g>
</svg>
