<svg xmlns="http://www.w3.org/2000/svg" width="20" height="20" viewBox="0 0 20 20">
    <g>
        <path fill="none" d="M0 0h20v20H0z"/>
    </g>
    <g>
        <g>
            <path fill="#ac2020" d="M10.333 6.333A5 5 0 0 0 6.8 14.867l1.183-1.183A3.278 3.278 0 0 1 7 11.333a3.333 3.333 0 0 1 6.667 0 3.278 3.278 0 0 1-.983 2.35l1.183 1.183a5 5 0 0 0-3.533-8.533zm0-3.333a8.332 8.332 0 0 0-5.891 14.225l1.183-1.183a6.661 6.661 0 1 1 9.908-8.875h2.017A8.328 8.328 0 0 0 10.333 3zm0 6.667A1.662 1.662 0 1 0 12 11.333a1.672 1.672 0 0 0-1.667-1.666zM17 8.833h1.667v5H17zm0 6.667h1.667v1.667H17z" transform="translate(1.667 2.5) translate(-2 -3)"/>
        </g>
    </g>
</svg>
