<svg xmlns="http://www.w3.org/2000/svg" width="20" height="20" viewBox="0 0 20 20">
    <path fill="none" d="M0 0h20v20H0z"/>
    <path fill="#ac2020" d="M14.667 3h-.833v4.167h.833zM13 4.667h-1.667v-.834H13V3h-2.5v2.5h1.667v.833H10.5v.833H13zM15.5 3v4.167h.833V5.5H18V3zm1.667 1.667h-.833v-.834h.833zm0 8.75a9.467 9.467 0 0 1-2.975-.475.832.832 0 0 0-.842.2l-1.833 1.833a12.538 12.538 0 0 1-5.492-5.492l1.833-1.841a.813.813 0 0 0 .2-.833 9.467 9.467 0 0 1-.475-2.975A.836.836 0 0 0 6.75 3H3.833A.836.836 0 0 0 3 3.833 14.165 14.165 0 0 0 17.167 18a.836.836 0 0 0 .833-.833V14.25a.836.836 0 0 0-.833-.833z" transform="translate(-.5 -.5)"/>
</svg>
