<svg xmlns="http://www.w3.org/2000/svg" width="200.335" height="154" viewBox="0 0 200.335 154">
    <defs>
        <linearGradient id="linear-gradient" x1="-5.448" x2="-5.442" y1="1.882" y2="1.882" gradientUnits="objectBoundingBox">
            <stop offset="0" stop-color="#4fa7a8"/>
            <stop offset=".012" stop-color="#4fa7a8"/>
            <stop offset=".998" stop-color="#bdc980"/>
            <stop offset="1" stop-color="#bdc980"/>
        </linearGradient>
        <linearGradient id="linear-gradient-2" x1="-6.002" x2="-5.996" y1="1.879" y2="1.879" gradientUnits="objectBoundingBox">
            <stop offset="0" stop-color="#4fa7a8"/>
            <stop offset=".012" stop-color="#4fa7a8"/>
            <stop offset=".471" stop-color="#bdc980"/>
            <stop offset="1" stop-color="#bdc980"/>
        </linearGradient>
        <clipPath id="clip-path">
            <path id="Path_12969" d="M936.018 440.519c-3.388 2.128-3.178 5.819-3 10.506s-1.166 6.389-3.849 9.508-1.234 7.892 3.424 10.005 8.722 5.392 6.25 10.9-1.589 15.538 10.592 18.827l15.661.034s10.994-6.4 12.406-18.084-7.944-12.715-10.592-16.611-1.861-9.208-1.814-14.584-4.011-8.1-9.484-7.8-7.609 0-10.434-1.938a9.777 9.777 0 0 0-5.439-1.827 6.89 6.89 0 0 0-3.72 1.056" class="cls-1" transform="translate(-927.826 -439.463)"/>
        </clipPath>
        <clipPath id="clip-path-2">
            <path id="Path_12971" d="M1004.19 453.807c-5.827 5.251-8.121 5.336-13.946 6.042s-8.121 6.182-7.414 13.065-2.83 9.886-7.415 12.423-6 11.409-3.355 15.124a13.521 13.521 0 0 0 6.709 4.831h18.005c9.884-1.692 12.533-8.722 12-13.349s2.649-6.671 7.239-9.22a9.224 9.224 0 0 0 4.413-10.728c-.882-3.572-5.3-7.2-4.059-10.747s3-7.57.707-10.546a4.338 4.338 0 0 0-3.6-1.709c-2.462 0-5.67 1.557-9.289 4.818" class="cls-1" transform="translate(-970.733 -448.99)"/>
        </clipPath>
        <style>
            .cls-1,.cls-5,.cls-8{fill:none}.cls-4{fill:#fefef4}.cls-5,.cls-8{stroke:#afac75;stroke-width:1.297px;stroke-miterlimit:10}.cls-8{stroke:#262727;stroke-linecap:round;stroke-width:1.527px}
        </style>
    </defs>
    <g id="img_account-error" transform="translate(-63.813 617.837)">
        <path id="Rectangle_1524" d="M0 0H200V154H0z" class="cls-1" transform="translate(63.813 -617.837)"/>
        <g id="Group_5310" transform="translate(64.813 -581.837)">
            <g id="Group_5303" transform="translate(40.008 0)">
                <path id="Path_12958" fill="#373d20" d="M1121.551 323.831h-110.688a6.348 6.348 0 0 0-6.348 6.348v12.473H1127.9v-12.473a6.348 6.348 0 0 0-6.348-6.348" transform="translate(-1004.515 -323.831)"/>
                <path id="Path_12959" fill="#afac75" d="M1004.566 417.172a6.347 6.347 0 0 0 6.348 6.348H1121.6a6.348 6.348 0 0 0 6.348-6.348v-53.525h-123.382z" transform="translate(-1004.542 -344.827)"/>
                <path id="Path_12960" d="M1132.833 440.978a2.015 2.015 0 0 0 0 4.029 2.015 2.015 0 0 0 0-4.029" class="cls-4" transform="translate(-1071.118 -385.605)"/>
                <path id="Path_12961" d="M1132.833 440.978a2.015 2.015 0 0 0 0 4.029 2.015 2.015 0 0 0 0-4.029z" class="cls-5" transform="translate(-1071.118 -385.605)"/>
                <path id="Path_12962" d="M1131.861 420.022a6.88 6.88 0 0 0 .017-6.962l-12.62-21.856a6.953 6.953 0 0 0-12.072-.008l-12.636 21.88a6.979 6.979 0 0 0 6.043 10.46h25.207a6.939 6.939 0 0 0 6.06-3.514m-2.74-1.579a3.808 3.808 0 0 1-3.329 1.926h-25.208a3.755 3.755 0 0 1-3.287-1.886 3.813 3.813 0 0 1-.008-3.844l12.636-21.871a3.795 3.795 0 0 1 6.592.008l12.629 21.871a3.765 3.765 0 0 1-.024 3.8" class="cls-4" transform="translate(-1051.498 -357.51)"/>
                <path id="Path_12963" d="M1131.861 420.022a6.88 6.88 0 0 0 .017-6.962l-12.62-21.856a6.953 6.953 0 0 0-12.072-.008l-12.636 21.88a6.979 6.979 0 0 0 6.043 10.46h25.207a6.939 6.939 0 0 0 6.061-3.514zm-2.74-1.579a3.808 3.808 0 0 1-3.329 1.926h-25.208a3.755 3.755 0 0 1-3.287-1.886 3.813 3.813 0 0 1-.008-3.844l12.636-21.871a3.795 3.795 0 0 1 6.592.008l12.629 21.871a3.765 3.765 0 0 1-.025 3.796z" class="cls-5" transform="translate(-1051.498 -357.51)"/>
                <path id="Path_12964" d="M1132.288 410.993a2.192 2.192 0 0 0-1.556 2.2c.049.637.088 1.282.137 1.918l.411 7.229a1.476 1.476 0 0 0 1.507 1.418 1.506 1.506 0 0 0 1.507-1.466c0-.5 0-.96.048-1.467.089-1.556.186-3.111.274-4.666.049-1.007.137-2.015.186-3.022a2.493 2.493 0 0 0-.186-1.007 2.019 2.019 0 0 0-2.329-1.137" class="cls-4" transform="translate(-1071.072 -369.763)"/>
                <path id="Path_12965" d="M1132.288 410.993a2.192 2.192 0 0 0-1.556 2.2c.049.637.088 1.282.137 1.918l.411 7.229a1.476 1.476 0 0 0 1.507 1.418 1.506 1.506 0 0 0 1.507-1.466c0-.5 0-.96.048-1.467.089-1.556.186-3.111.274-4.666.049-1.007.137-2.015.186-3.022a2.493 2.493 0 0 0-.186-1.007 2.019 2.019 0 0 0-2.328-1.137z" class="cls-5" transform="translate(-1071.072 -369.763)"/>
                <path id="Path_12966" d="M1031.009 342.33a2.336 2.336 0 1 1-2.336-2.336 2.337 2.337 0 0 1 2.336 2.336" class="cls-4" transform="translate(-1016.022 -332.354)"/>
                <path id="Path_12967" d="M1050.218 342.33a2.336 2.336 0 1 1-2.336-2.336 2.337 2.337 0 0 1 2.336 2.336" class="cls-4" transform="translate(-1026.151 -332.354)"/>
                <path id="Path_12968" d="M1069.427 342.33a2.336 2.336 0 1 1-2.336-2.336 2.336 2.336 0 0 1 2.336 2.336" class="cls-4" transform="translate(-1036.281 -332.354)"/>
            </g>
            <g id="Group_5309" transform="translate(3.759 54.657)">
                <g id="Group_5305">
                    <g id="Group_5304" clip-path="url(#clip-path)">
                        <path id="Rectangle_1587" fill="url(#linear-gradient)" d="M0 0H77.924V74.197H0z" transform="translate(-25.789 48.527) rotate(-63.263)"/>
                    </g>
                </g>
                <g id="Group_5306" transform="translate(13.638 7.992)">
                    <path id="Path_12970" d="M956.679 456.37c.034.155 19.052 13.077 18.119 52.755" class="cls-8" transform="translate(-956.679 -456.37)"/>
                </g>
                <g id="Group_5308" transform="translate(20.281 4.503)">
                    <g id="Group_5307" clip-path="url(#clip-path-2)">
                        <path id="Rectangle_1588" fill="url(#linear-gradient-2)" d="M0 0H74.396V72.767H0z" transform="translate(-24.899 43.53) rotate(-61.557)"/>
                    </g>
                </g>
                <path id="Path_12972" d="M1024.851 468.323a76.032 76.032 0 0 0-25.317 47.165" class="cls-8" transform="translate(-965.639 -454.682)"/>
            </g>
            <path id="Path_12973" fill="#2c2e17" d="M1118.158 569.9H920.926a1.045 1.045 0 0 1-1.051-1.039v-.006a1.045 1.045 0 0 1 1.046-1.045h197.238a1.045 1.045 0 0 1 1.051 1.039v.006a1.045 1.045 0 0 1-1.045 1.045z" transform="translate(-919.874 -452.486)"/>
        </g>
    </g>
</svg>
