<svg xmlns="http://www.w3.org/2000/svg" width="230" height="230" viewBox="0 0 230 230">
    <defs>
        <linearGradient id="linear-gradient" x1=".874" x2=".141" y1=".817" y2=".196" gradientUnits="objectBoundingBox">
            <stop offset=".012" stop-color="#60bdc0"/>
            <stop offset=".998" stop-color="#c7d997"/>
        </linearGradient>
        <linearGradient id="linear-gradient-3" x1="1.025" x2=".232" y1="1.252" y2=".117" gradientUnits="objectBoundingBox">
            <stop offset="0" stop-color="#ff8b84"/>
            <stop offset="1" stop-color="#fcbc72"/>
        </linearGradient>
        <linearGradient id="linear-gradient-4" x1=".94" x2=".369" y1="1.105" y2=".32" gradientUnits="objectBoundingBox">
            <stop offset="0" stop-color="#df83b4"/>
            <stop offset="1" stop-color="#fdc2a5"/>
        </linearGradient>
        <linearGradient id="linear-gradient-5" x1=".919" x2=".193" y1=".965" y2=".16" gradientUnits="objectBoundingBox">
            <stop offset=".004" stop-color="#aeb5df"/>
            <stop offset="1" stop-color="#f7d6df"/>
        </linearGradient>
        <linearGradient id="linear-gradient-6" x2="1" y1=".5" y2=".5" gradientUnits="objectBoundingBox">
            <stop offset=".005" stop-color="#fad7a1"/>
            <stop offset="1" stop-color="#e96d71"/>
        </linearGradient>
        <clipPath id="clip-path">
            <circle id="Ellipse_744" cx="115" cy="115" r="115" class="cls-1" transform="translate(1069.899 1888.741)"/>
        </clipPath>
        <style>
            .cls-1{fill:url(#linear-gradient)}.cls-5{fill:#253251}.cls-6{fill:#fff}.cls-11{fill:#f19e87}.cls-12{fill:#0b0c0c}.cls-13{fill:#c66b6b}.cls-14{fill:url(#linear-gradient-6)}.cls-16{fill:#e6e7e7}
        </style>
    </defs>
    <g id="img_no-meeting" clip-path="url(#clip-path)" transform="translate(-1069.899 -1888.741)">
        <circle id="Ellipse_740" cx="115" cy="115" r="115" class="cls-1" transform="translate(1069.899 1888.741)"/>
        <g id="Group_5152" transform="translate(1100.329 1933.23)">
            <path id="Rectangle_1509" fill="url(#linear-gradient-3)" d="M0 0H68.809V47.63H0z" transform="translate(0 18.461)"/>
            <g id="Group_5144" opacity="0.187" transform="translate(7.159 21.752)">
                <g id="Group_5143" transform="translate(0 27.08)">
                    <path id="Path_12587" d="M1069.963 571.964c-3.649-3.792-14.62-6.732-15.9-7.5s-4.532-3.026-4.532-3.026l-.235-5.87-4.8-.11h-.047l-4.8.11-.235 5.87s-3.248 2.251-4.533 3.026-12.254 3.712-15.9 7.5c-.235.243-.451.478-.648.7h52.275c-.195-.221-.408-.456-.645-.7z" class="cls-5" transform="translate(-1018.336 -555.455)"/>
                </g>
                <path id="Path_12588" d="M1046.21 554.952l-.836.529s-.268.748-.607 1.714c.01-2.813-.049-7.014-.049-7.014l-2.748-4.331-8.354-.774-5.647 2.592-.2 8.716-1.042-1.432a9.233 9.233 0 0 0-.7 2.617 12.754 12.754 0 0 0 .7 3.25c.194.5.558 1.112 1.265.924a14.835 14.835 0 0 0 .9 3.6c.619 1.044 3.134 6.11 6.577 5.957s6.033-1.432 7.193-4.6c.641-1.753 1.164-3.375 1.524-4.691a1.686 1.686 0 0 0 .578.049c.609-.068.838-.735 1.153-1.587a4.585 4.585 0 0 0 .535-1.777 32.671 32.671 0 0 0-.242-3.742z" class="cls-6" transform="translate(-1010.306 -539.2)"/>
                <path id="Path_12589" d="M1028.424 562.736a11.529 11.529 0 0 1-1.2-3.6 9.517 9.517 0 0 0-.7-4.139c-.617-1.044-1.353-.58-1.159-2.127a4.613 4.613 0 0 1 .811-2.282s-.38-1.741.7-2.4a7.868 7.868 0 0 1 2.394-.889s.386-3.753 2.9-4.525 2.127-.474 2.552-.392c0 0 3.287-.768 5.144.817l-.772.155s7.31 1.624 8.74 3.209l-.889-.039a8.434 8.434 0 0 1 1.2 3.52s.58.772.734-.194a7.568 7.568 0 0 1-.772 3.017c-.735 1.354.039 1.9-.35 2.668s-.5.349-.655 1.355a11.6 11.6 0 0 1-.658 2.746c-.464 1.316-.774 2.4-1 2.862s0-4.486-.388-6.111.194-1.354-.772-1.935a3.3 3.3 0 0 1-1.316-1.547s-.388-1.547-1.547-1.663-2.593.733-4.023-.155-1.046-1.7-2.437-1.083a10.574 10.574 0 0 1-4.217 1.044 2.482 2.482 0 0 0-2.049 1.083z" class="cls-5" transform="translate(-1011.032 -542.2)"/>
            </g>
            <g id="Group_5145" transform="translate(59.865 21.521)">
                <circle id="Ellipse_741" cx="1.146" cy="1.146" r="1.146" class="cls-6" transform="translate(3.936)"/>
                <path id="Path_12590" d="M1046.906 542.087h-1.365a.523.523 0 0 0-.523.523v.135l-.521-.237a.257.257 0 0 0-.364.233v1.052a.258.258 0 0 0 .357.237l.527-.225v.049a.524.524 0 0 0 .523.525h1.365a.524.524 0 0 0 .523-.525v-1.244a.523.523 0 0 0-.522-.523z" class="cls-6" transform="translate(-1044.134 -542.086)"/>
            </g>
            <path id="Rectangle_1510" fill="url(#linear-gradient-4)" d="M0 0H68.809V47.63H0z" transform="translate(100.533 32.561)"/>
            <g id="Group_5147" opacity="0.189" transform="translate(113.782 39.647)">
                <path id="Path_12591" d="M1086.3 560.789a30.627 30.627 0 0 1 5.03 3.332 13.792 13.792 0 0 1 3.843 3.949 28.444 28.444 0 0 1 1.165 2.811h-37.858l5.51-11.128 15.276-2.566z" class="cls-5" transform="translate(-1051.365 -530.364)"/>
                <path id="Path_12592" d="M1061.925 566.927a22.691 22.691 0 0 0 14.73 0l2.924-5.618-6.852-5.457-10.093 1.148z" class="cls-6" transform="translate(-1047.771 -531.756)"/>
                <g id="Group_5146">
                    <path id="Path_12593" d="M1071.061 581.629c1.418-1.581 1.964-1.254 1.144-4.2s-1.745-6.382-.817-7.584 8.074-2.728 8.564-1.692.382 2.456 1.692 3.491 8.293 2.838 8.293 2.838-4.256-2.346-3.929-5.621 3.328-8.29 1.855-12.383-4.856-10.366-8.893-11.565a15.914 15.914 0 0 0-3.63-.709c-1.334 0-7.116-.874-9.571 1.637s-4.91 4.364-4.746 8.456 1.037 6.274-.272 8.293-2.838.762-2.727 3.273 2.617 3.655 2.018 6.382-.11 1.747-1.528 3.765-4.147 2.345-3.383 6.873c.112.662.221 1.218.327 1.692h13.837a5.471 5.471 0 0 1 1.766-2.946z" class="cls-5" transform="translate(-1054.997 -544.058)"/>
                </g>
                <path id="Path_12594" d="M1076.331 553.034a35.769 35.769 0 0 1-2.454-3.655c-.6-1.2-1.91-1.8-3.873-1.691s-5.565-.327-6.6 1.2-2.674 7.474-2.456 9.982.546 5.293 1.2 6.219a13.678 13.678 0 0 0 3.6 3.22 9.5 9.5 0 0 0 2.619.545c1.091 0 5.181-2.345 5.89-3.436a15.308 15.308 0 0 0 1.473-4.2c.329-1.31.764-1.038 1.038-1.747s.872-1.855.49-2.672-.872-.6-.983-1.2a17.57 17.57 0 0 1 .056-2.565z" class="cls-6" transform="translate(-1048.812 -540.285)"/>
            </g>
            <g id="Group_5148" transform="translate(155.068 35.629)">
                <circle id="Ellipse_742" cx="2.009" cy="2.009" r="2.009" class="cls-6" transform="translate(6.9)"/>
                <path id="Path_12595" d="M1082.36 542.091h-2.392a.918.918 0 0 0-.917.917v.236l-.913-.416a.45.45 0 0 0-.637.412v1.841a.451.451 0 0 0 .626.415l.924-.39v.086a.918.918 0 0 0 .917.917h2.392a.919.919 0 0 0 .917-.917v-2.184a.919.919 0 0 0-.917-.917z" class="cls-6" transform="translate(-1077.501 -542.091)"/>
            </g>
            <path id="Rectangle_1511" fill="url(#linear-gradient-5)" d="M0 0H68.809V47.63H0z" transform="rotate(180 61.76 23.815)"/>
            <g id="Group_5150" opacity="0.122" transform="translate(62.745 6.083)">
                <g id="Group_5149" transform="translate(0 22.011)">
                    <path id="Path_12596" d="M1105.621 589.126c-3.428-3.561-13.364-6.366-15.511-7.312-1.5 2.335-5.289 3.992-9.729 3.992-4.478 0-8.3-1.688-9.768-4.053-1.822.877-12.142 3.731-15.65 7.373a11.18 11.18 0 0 0-2.519 3.52h55.695a11.191 11.191 0 0 0-2.518-3.52z" class="cls-5" transform="translate(-1052.445 -573.378)"/>
                    <path id="Path_12597" d="M1071.106 590.082c4.439 0 8.229-1.657 9.729-3.992a2.611 2.611 0 0 1-.292-.143c-1.277-.77-4.5-3.005-4.5-3.005l-.186-4.6a16.852 16.852 0 0 0-9.677.055l-.182 4.55s-3.226 2.235-4.5 3.005c-.041.024-.094.051-.153.082 1.464 2.36 5.282 4.048 9.761 4.048z" class="cls-6" transform="translate(-1043.169 -577.654)"/>
                </g>
                <path id="Path_12598" d="M1080.336 578.633c-.161-.535-.952-.476-1.283-.366-.006-.145.1-.443.078-.558-.253-1.581-.981-7.763-.981-7.763l-7.038-1.1h-3.071s-4.311 1.994-4.8 3.908a32.522 32.522 0 0 0-.39 5.908l-.02-.258s-1.05-.615-1.305.229c-.245.807.069 4.243 1.5 4.852.057.7.131 1.348.219 1.888.552 3.363 7.007 6.65 7.007 6.65l6.566-3.549 1.8-4.292s.051-.255.129-.668c1.505-.495 1.838-4.058 1.589-4.881z" class="cls-6" transform="translate(-1043.05 -564.826)"/>
                <path id="Path_12599" d="M1080.069 574.619a2.217 2.217 0 0 0-1-2.358c-.153-1.024-1.845-2.817-1.845-2.817l-.129.717c-.127-.846-2.049-2.28-2.049-2.28v.691c-.255-.717-2.562-1.692-2.562-1.692l.255 1.283c-.357-.642-2.178-.821-2.178-.821l.153.821-.819-1a4.861 4.861 0 0 0-2.742 1.23l.2-.717c-1.357 0-2.2 2.2-2.2 2.2l-.153-.821c-1.487.77-1.461 3-1.461 3l-.488-.59a6.963 6.963 0 0 0-1.485 3.408c-.153 1.334 1.308 7.868 1.308 7.868s-.155 7.122.153 7.994 2.1 4.818 3 5.637a6.54 6.54 0 0 0 9.653 0c.9-.819 2.691-4.766 3-5.637s.155-7.994.155-7.994l.029-.817c.296-1.668 1.042-5.897 1.205-7.305zm-9.214 15.86a2.578 2.578 0 0 0-1.24.411 13.96 13.96 0 0 1-2.317-.223 5.714 5.714 0 0 1 2.188-1.187 1.884 1.884 0 0 1 2.736 0 5.716 5.716 0 0 1 2.188 1.187 13.967 13.967 0 0 1-2.317.223 2.568 2.568 0 0 0-1.238-.411zm7.081-4.074s-.556 2.754-1.769 3.62c-.249-.243-.576-.578-.972-1.005a8.386 8.386 0 0 0-3.384-1.589l-.956.384-.958-.384a8.379 8.379 0 0 0-3.381 1.589c-.4.427-.725.762-.974 1.005-1.212-.866-1.768-3.62-1.768-3.62l-.823-4.188.593-4.164c-.1-1.718.46-3.794 1.639-3.794a52.532 52.532 0 0 1 6.278 1.41l5.228-1.434c1.9.435 1.383 4.1 1.383 4.1l.641 4.115z" class="cls-5" transform="translate(-1042.939 -566.88)"/>
            </g>
            <g id="Group_5151" transform="translate(104.445 3.182)">
                <circle id="Ellipse_743" cx="2.892" cy="2.892" r="2.892" class="cls-6" transform="translate(9.934 .001)"/>
                <path id="Path_12600" d="M1084.5 565.46h-3.444a1.322 1.322 0 0 0-1.319 1.32v.345l-1.315-.6a.648.648 0 0 0-.917.593v2.65a.648.648 0 0 0 .9.6l1.33-.562v.124a1.318 1.318 0 0 0 1.319 1.319h3.444a1.319 1.319 0 0 0 1.32-1.319v-3.15a1.322 1.322 0 0 0-1.318-1.32z" class="cls-6" transform="translate(-1077.501 -565.46)"/>
            </g>
        </g>
        <g id="Group_5153" transform="translate(1161.455 1989.33)">
            <path id="Union_9" d="M13.326 53.292A34.278 34.278 0 0 1 0 26.186V6h.01L0 5.995 24.295 0l23.5 5.995-.014.005h.011v20.186a34.277 34.277 0 0 1-13.326 27.106L23.9 61.471z" class="cls-5"/>
            <path id="Path_12603" d="M2845.894 969.272c0-2.9 1.911-5.232 4.26-5.232s4.259 2.331 4.26 5.232h2.106a7.84 7.84 0 0 0-1.8-5.1 6.349 6.349 0 0 0-2.022-1.6 5.642 5.642 0 0 0-5.079.01 6.309 6.309 0 0 0-2.022 1.585 7.844 7.844 0 0 0-1.805 5.1z" class="cls-6" transform="translate(-2826.296 -944.155)"/>
            <path id="Subtraction_9" d="M16.546 12.786H0V0h16.546v12.785zM8.592 2.543a1.867 1.867 0 0 0-1.871 1.9 1.944 1.944 0 0 0 1.338 1.81v3.489a.439.439 0 0 0 .441.466h.063c.293 0 .355-.253.355-.466V6.3a1.835 1.835 0 0 0 1.548-1.856 1.868 1.868 0 0 0-1.874-1.901z" class="cls-6" transform="translate(15.626 25.01)"/>
        </g>
        <g id="Group_5159" transform="translate(-15 -198)">
            <path id="Path_12605" d="M1511.393 1334.788s7.873 5.237 4.505 15.709c0 0 4.815.455.838 14.116a15.939 15.939 0 0 1-6.481 6.6c-4.781 2.732-2.732 3.87-2.732 3.87l5.175 1.138s-1.3 3.871-13.6 3.643-13.205-3.643-13.205-3.643l3.188-10.7 5.464-22.312z" class="cls-11" transform="translate(-373.642 866.372)"/>
            <path id="Path_12606" d="M1504.209 1343.99s4.1-8.2 0-14.685c0 0 5.35-6.83 1.821-10.928s-5.578-2.732-5.578-2.732l-8.2 3.073v-4.781l-7.513 4.781s-3.757-1.708-5.806-1.366a12.822 12.822 0 0 0 0 3.756s-2.049-2.049-5.806.342c0 0 3.415 1.025 3.415 2.732s-5.123 4.781-5.123 4.781-4.44 6.489-3.756 10.928 5.464 10.246 5.464 10.246l4.1 6.489s2.049 2.732 1.366 4.781 11.611.919 15.027-9.1c0 0 4.1-7.29 3.415-11.388s7.174-5.125 7.174 3.071z" class="cls-12" transform="translate(-364.935 876.295)"/>
            <g id="Group_5154" transform="translate(1132.965 2215.624)">
                <path id="Path_12607" d="M1530.613 1367.608c-.872-.452-1.057-1.584-1.275-2.542s-.825-2.069-1.805-2a1.579 1.579 0 0 0-1.3 1.236 4.636 4.636 0 0 0 .037 1.9l.7 4.4c.134.843.369 1.822 1.153 2.16a4.557 4.557 0 0 0 .555-1.556 2.352 2.352 0 0 1-.356 1.332 1.45 1.45 0 0 1-.874.685 1.393 1.393 0 0 1-1.385-.679 3.67 3.67 0 0 1-.461-1.56 24.022 24.022 0 0 1-.049-5.636 3.81 3.81 0 0 1 .917-2.426 2.563 2.563 0 0 1 3.7.666 4.172 4.172 0 0 1-.019 4.091" class="cls-13" transform="translate(-1525.414 -1362.383)"/>
                <path id="Path_12608" d="M1530.692 1374.289a.857.857 0 0 1 .748-1.163 1.342 1.342 0 0 1 1.232.932 3.314 3.314 0 0 1 .064 1.635 13.771 13.771 0 0 1-.9 3.253 1.887 1.887 0 0 1-.317-1.823 6.309 6.309 0 0 0 .379-1.894c-.046-.646-.582-1.325-1.22-1.215" class="cls-13" transform="translate(-1527.889 -1367.495)"/>
            </g>
            <path id="Path_12609" d="M1523.125 1407.072a2.29 2.29 0 0 1-2.188-1.325c-.456-.787-.684-1.7-1.206-2.443a7.419 7.419 0 0 0-3.062-2.168 7.1 7.1 0 0 0 1.423 1.791c1.469 1.769 1.478 4.57 3.3 5.976a4.135 4.135 0 0 1 .932-1.453" class="cls-13" transform="translate(-388.288 834.8)"/>
            <path id="Path_12610" d="M1379.5 1491.172a5.315 5.315 0 0 0-2.163 4.243l-.642 5.236a2.911 2.911 0 0 0 1.284 3.263 11.353 11.353 0 0 0 3.407 2.343 10.686 10.686 0 0 0 5.428.122 30.082 30.082 0 0 0 9.769-2.966 13.236 13.236 0 0 0 6.54-7.562 51.418 51.418 0 0 0-5.629-8.547c-1.795-2.066-5.532-5.972-8.529-4.925-1.407.492-3.07 2.818-4.13 3.809z" class="cls-14" transform="translate(-321.645 796.221)"/>
            <path id="Path_12611" d="M1627.863 1489.575a12.848 12.848 0 0 1 2.638 2.454 11.453 11.453 0 0 1 1.751 5.784c.229 2.4.228 5.019-1.191 6.969-1.66 2.28-4.953 2.96-7.632 2.081-.751-.246-1.463-.6-2.21-.852-1.038-.356-2.13-.528-3.185-.831a13.618 13.618 0 0 1-9.06-8.818c0 .013 8.917-5.582 9.714-6.246.869-.724 2.981-3.739 3.934-3.924 1.54-.299 3.998 2.428 5.241 3.383z" class="cls-14" transform="translate(-432.213 794.334)"/>
            <path id="Path_12612" d="M1445.55 1410l-25.272 8.2a37.252 37.252 0 0 0-9.562 7.969c-4.781 5.464-21.174 23.45-21.174 23.45s.683 5.464 9.335 11.611 14.343 5.237 14.343 5.237h85.38v-9.567l6.83 7.969s15.482-7.969 17.531-17.3c0 0-27.093-26.866-31.419-28.687s-33.7-10.245-33.7-10.245z" class="cls-6" transform="translate(-327.792 831.231)"/>
            <path id="Path_12613" fill="#a68c87" d="M1512.524 1469.874c-7.526.209-20.813 4.829-37.213 4.526h-4.446c-16.4.3-29.687-4.317-37.213-4.526-8.2-.228-6.83 12.522-6.83 12.522s1.191 15.13 2.5 28.232 7.741 14.344 7.741 14.344h72.042s6.428-1.242 7.741-14.344 2.5-28.232 2.5-28.232 1.375-12.75-6.822-12.522z" transform="translate(-345.491 802.09)"/>
        </g>
        <g id="Group_5158" transform="translate(-128.527 -43.935)">
            <g id="Group_5156" transform="translate(1312.604 2104.551)">
                <path id="Path_12614" d="M1918.617 1400.608a2.837 2.837 0 0 0-1.543 3.066 8.488 8.488 0 0 0 1.518 3.349 241.457 241.457 0 0 1 14.943 27.023c1.656 3.509 3.345 7.208 6.436 9.552s8.069 2.715 10.512-.3a7.621 7.621 0 0 0 .838-7.235 21.722 21.722 0 0 0-4.077-6.376q-11.682-14.182-24.58-27.3c-1.097-1.113-2.58-2.317-4.047-1.779z" class="cls-11" transform="translate(-1917.046 -1400.476)"/>
            </g>
            <g id="Group_5157" transform="translate(1296 2101.427)">
                <path id="Path_12615" d="M1905.89 1395.772a11.969 11.969 0 0 1 4.17 2.7 5.386 5.386 0 0 1 2.067 3.212 2.338 2.338 0 0 1-.173 1.232c-.714 1.6-2.581 1.468-3.834.716-1.013-.607-1.788-1.539-2.737-2.24-2.309-1.7-5.36-1.882-8.219-2.135-2.531-.223-5.248-.649-7.187-2.209-.292-.235-.134-.772.24-.744 5.931.447 6.267-.52 9.587-.8a16.322 16.322 0 0 1 6.086.268z" class="cls-11" transform="translate(-1889.826 -1395.356)"/>
            </g>
            <path id="Path_12616" d="M1988.519 1388.914a6.39 6.39 0 0 0-2.892-3.061 4.111 4.111 0 0 0-1.8-.322 6.035 6.035 0 0 0-3.426 1.369c-3.455 2.788-5.965 7.395-8.351 11.093q-4.141 6.394-8.276 12.8-3.572 5.52-7.14 11.044c-1.866 2.887-4.33 6.262-4.686 9.766a7.879 7.879 0 0 0 2.683 6.952c4.593 3.61 8.285-1.1 11.159-4.257a107.933 107.933 0 0 0 9.574-11.754c1.376-2.023 2.774-4.031 4.175-6.038 3.443-4.932 7.379-10.079 9.453-15.848a15.45 15.45 0 0 0 .73-8.323 13.863 13.863 0 0 0-1.203-3.421z" class="cls-16" transform="translate(-618.036 709.904)"/>
            <path id="Path_12617" d="M1965.341 1447.7c2.131 2.253 5.1 3.548 6.656 5.306 3.505 3.939 7.12 7.743 11.645 10.473a39.657 39.657 0 0 0 7.34 3.5c2.272.8 5.044.574 6.949 2.137.635-1.868 1.185-3.8 1.649-5.771a73.733 73.733 0 0 0 1.905-19.181 88.7 88.7 0 0 1 2.406-24.115c.708-2.986 1.515-5.96 2.156-8.964a49.1 49.1 0 0 0 1.112-7.713c.3-5.666-.935-11.676-4.733-15.889s-10.577-5.984-15.383-2.974a20.051 20.051 0 0 0-5.062 5.258q-5.093 6.769-10.186 13.551c-2.113 2.808-4.293 5.771-4.831 9.245-.714 4.665 1.655 9.159 3.261 13.6 1.374 3.774 2.919 8.2 2.637 12.281-.071 1.007-4.504 7.81-7.521 9.256z" class="cls-6" transform="translate(-623.276 710.887)"/>
            <path id="Path_12618" d="M2010.671 1369.849c-2.631 1.46-6.257 1.985-9.18 2.717-.931.233-9.347 1.338-9.453 1.807.8-3.525 2.181-6.69 2.613-10.327a53 53 0 0 0 .129-11.3c-.25-2.6-.65-5.424.686-7.672a5.742 5.742 0 0 1 4.747-2.741 5.911 5.911 0 0 1 4.881 2.525c1.115 1.62 1.348 3.666 1.6 5.617.462 3.55.144 6.2.954 9.687.394 1.7 1.013 3.976 1.483 5.653a39.7 39.7 0 0 0 1.576 4.016z" class="cls-11" transform="translate(-633.688 726.751)"/>
            <path id="Path_12619" d="M1998.337 1451.953a6.318 6.318 0 0 0 2.314 2.827 36.238 36.238 0 0 1 11.755 19.315 73.733 73.733 0 0 0 1.905-19.181 88.7 88.7 0 0 1 2.406-24.115c.708-2.986 1.515-5.96 2.156-8.964a33.736 33.736 0 0 0-7.389-11.267c-.256 6.345-3.888 9.991-4.073 16.335-.2 6.669-1.838 14.852-6.235 19.426-1.531 1.588-3.419 3.493-2.839 5.624z" class="cls-16" transform="translate(-636.102 700.138)"/>
            <path id="Path_12620" fill="#f09985" d="M2008.161 1340.294c1.5-2.838 1.329-6.271.63-9.4a31.349 31.349 0 0 0-15.791-20.628 16.48 16.48 0 0 0-7.357-2.154 8.6 8.6 0 0 0-6.858 2.963 53.829 53.829 0 0 0-.344 23.583c1.115 4.831 6.41 11.168 11.679 11.505a35.113 35.113 0 0 0 10.02-.318c3.275-.745 6.455-2.585 8.021-5.551z" transform="translate(-627.938 740.096)"/>
            <path id="Path_12621" d="M1978.578 1300.7a16.294 16.294 0 0 0 6.007 25.456c-.166-1.833 2.4-3.553 4.192-3.156a4.515 4.515 0 0 1 3.211 4.042c.217 2.25-1.978 4.576-1.344 6.487s2.649 3.459 4.2 4.622c2.381 1.787 5.56 4.057 8.536 2.18a10.24 10.24 0 0 0 2.386-2.308c5.045-6.22 9.809-14.9 9.453-23.142a23.724 23.724 0 0 0-4.28-12.836c-2.943-4.063-7.64-5.169-12.523-5.423-6.53-.342-13.53 2.361-19.838 4.078z" class="cls-12" transform="translate(-626.951 744.589)"/>
            <path id="Path_12622" d="M1983.507 1371.209a89.625 89.625 0 0 0 .045-39.474 3.185 3.185 0 0 1 3.737 1.654 9.039 9.039 0 0 1 .791 4.353c.12 11.323-.659 22.843-4.573 33.467z" class="cls-12" transform="translate(-630.36 730.95)"/>
            <path id="Path_12623" d="M2033.932 1317.383a12.158 12.158 0 0 1-5.475-4.463c-3.742-5.118-4.869-12.352-1.863-17.935s10.5-8.626 16.191-5.833c3.475 1.706 5.791 5.109 7.515 8.575a21.06 21.06 0 0 1 2.379 7.46 10.047 10.047 0 0 1-2.089 7.38 14.378 14.378 0 0 1-5.928 3.631c-3.43 1.336-7.268 2.432-10.73 1.185z" class="cls-12" transform="translate(-646.493 747.9)"/>
            <path id="Path_12624" d="M1977.713 1303.661l-.852 1.118c-.13.182-.291.371-.435.6l-.446.755-.51.863c-.162.312-.3.657-.457 1.008s-.335.716-.469 1.111l-.4 1.229c-.065.212-.145.424-.2.645l-.144.677c-.094.457-.2.924-.269 1.4a20.728 20.728 0 0 0-.162 2.985 15.852 15.852 0 0 0 1.125 6.043 20.7 20.7 0 0 0 1.231 2.734c.238.422.5.82.756 1.212l.378.579c.131.187.282.355.418.529l.813 1c.268.319.572.587.839.866s.527.543.789.776l.785.619.688.542c.217.162.437.281.624.4l1.2.736-1.127-.836c-.177-.135-.385-.266-.589-.442l-.643-.584-.728-.661c-.242-.247-.482-.521-.74-.8s-.537-.559-.786-.883l-.753-1.016c-.126-.176-.267-.346-.386-.533l-.344-.581c-.224-.4-.489-.778-.711-1.194a20.375 20.375 0 0 1-1.152-2.657 17.858 17.858 0 0 1-1.1-5.871 20.236 20.236 0 0 1 .117-2.9c.057-.468.166-.921.232-1.371l.111-.666c.044-.218.114-.427.168-.637l.336-1.219c.115-.392.284-.751.414-1.107s.266-.695.4-1.013l.439-.877.389-.775c.126-.236.274-.437.392-.626z" class="cls-12" transform="translate(-626.403 741.831)"/>
            <path id="Path_12625" d="M2055.928 1320.38l-.067.327c-.044.213-.1.529-.21.916a13.312 13.312 0 0 1-.437 1.383q-.165.386-.348.82l-.434.885a14.514 14.514 0 0 1-1.2 1.853 15.737 15.737 0 0 1-1.645 1.823 14.521 14.521 0 0 1-2.069 1.6 13.209 13.209 0 0 1-5.034 1.84 14.5 14.5 0 0 1-2.615.109 15.8 15.8 0 0 1-2.433-.332 14.467 14.467 0 0 1-2.114-.639l-.9-.4-.795-.4a13.385 13.385 0 0 1-1.228-.775c-.337-.223-.577-.432-.75-.564l-.262-.206.239.232a8.137 8.137 0 0 0 .7.636 13.6 13.6 0 0 0 1.181.879l.777.471c.281.154.587.295.9.453a14.822 14.822 0 0 0 2.143.76 12.715 12.715 0 0 0 2.509.432 15.1 15.1 0 0 0 2.729-.071 12.1 12.1 0 0 0 5.271-1.928 15.1 15.1 0 0 0 2.132-1.705 12.773 12.773 0 0 0 1.638-1.948 14.864 14.864 0 0 0 1.149-1.962c.138-.324.282-.629.4-.928l.29-.861a13.6 13.6 0 0 0 .336-1.435 8.121 8.121 0 0 0 .124-.935c.012-.21.023-.33.023-.33z" class="cls-12" transform="translate(-649.811 735.311)"/>
            <path id="Path_12626" d="M2001.189 1354.516l-.1.143a1.447 1.447 0 0 0-.236.431 2.557 2.557 0 0 0-.165.769c0 .151 0 .315.009.485.026.168.049.348.093.53a5.307 5.307 0 0 0 .417 1.129 11.186 11.186 0 0 0 .693 1.126 7.8 7.8 0 0 0 .9 1.1 10.278 10.278 0 0 0 2.3 1.829 7.59 7.59 0 0 0 1.271.634 6.293 6.293 0 0 0 1.252.43l.591.163c.192.045.385.055.566.082.364.047.7.087.99.109l.767-.026c.423-.016.661-.035.661-.035s-.241-.038-.657-.088l-.745-.085-.944-.231c-.171-.044-.353-.073-.533-.135l-.553-.2a7.409 7.409 0 0 1-1.167-.488 8.638 8.638 0 0 1-1.182-.648 8.273 8.273 0 0 1-1.135-.8 8.046 8.046 0 0 1-1.031-.92 8.412 8.412 0 0 1-.892-1.005c-.246-.362-.562-.719-.736-1.033a6.136 6.136 0 0 1-.484-1.007c-.059-.163-.092-.325-.141-.476-.031-.154-.049-.3-.074-.442a2.383 2.383 0 0 1 .046-.722 1.7 1.7 0 0 1 .151-.458z" class="cls-12" transform="translate(-637.062 721.998)"/>
            <path id="Path_12627" d="M1998.937 1461.508c-3.506-1.786-7.657-.906-11.376-.356-2.422.359-4.839.749-7.258 1.124-5 .794-9.988 1.688-14.99 2.484-4.751.757-9.608 1.021-14.308 1.826a2.784 2.784 0 0 0-2.144 1.1 1.858 1.858 0 0 0 .186 1.817c1.408 2.2 3.563 2.142 5.955 2.437 2.92.359 5.848.648 8.766 1.015l18.682 2.347 7.862.988a14.288 14.288 0 0 0 8.854-1.419 8.726 8.726 0 0 0 4.244-4.84l.448-2.1c-.447-3.127-1.911-4.765-4.678-6.288q-.121-.072-.243-.135z" class="cls-11" transform="translate(-616.786 680.688)"/>
            <path id="Path_12628" d="M2017.409 1391.418a6.148 6.148 0 0 0-4.037-.453 4.046 4.046 0 0 0-1.541.886 5.933 5.933 0 0 0-1.715 3.151c-.866 4.214.09 9.18.581 13.4q.836 7.3 1.683 14.61.725 6.3 1.455 12.607c.381 3.3 1.363 13.667 1.363 13.667s4.905.01 7.409-.081c5.644-.2 5.508-5.983 5.712-10.11a104.372 104.372 0 0 0-.075-14.651c-.215-2.352-.405-4.707-.592-7.062-.46-5.788-.683-12.044-2.678-17.6a14.658 14.658 0 0 0-4.568-6.6 13.162 13.162 0 0 0-2.997-1.764z" class="cls-6" transform="translate(-640.602 707.852)"/>
            <path id="Path_12629" d="M1944.341 1474.837a25.752 25.752 0 0 1-6.131.251 47.091 47.091 0 0 0-7.944.542c-1.757.223-3.077-.443-4.684.381-.345.176-.786.367-1.086.123a.657.657 0 0 1-.123-.765c.686-1.539 2.84-3.109 4.173-4.058a10.212 10.212 0 0 1 5.43-2.032c2.346-.09 4.559.855 6.877 1.024 2.006.146 3.564-.5 4.952 1.451a2.02 2.02 0 0 1 .292 2.1 2.484 2.484 0 0 1-1.756.983z" class="cls-11" transform="translate(-607.272 677.245)"/>
            <path id="Path_12630" fill="#af5355" d="M1994.673 1343.384a1.152 1.152 0 0 1 .425-.668 1.489 1.489 0 0 1 1.573-.049 2.836 2.836 0 0 1 1.094 2.833 1.74 1.74 0 0 1-1.323 1.587 2.369 2.369 0 0 1-.953.138c-.164-.015-.7-.122-.709-.354v-.059a2.021 2.021 0 0 0 .8-.585 1.193 1.193 0 0 0-.073-1.408 7.414 7.414 0 0 1-.693-.63.991.991 0 0 1-.141-.805z" transform="translate(-634.704 726.698)"/>
        </g>
    </g>
</svg>
