<svg xmlns="http://www.w3.org/2000/svg" width="200" height="154" viewBox="0 0 200 154">
    <defs>
        <clipPath id="clip-path">
            <path id="Path_12854" d="M274.049 502.456c-5.69 6.049-.937 15.057 12.745 19.953s52.322 6.4 52.322 6.4a17.111 17.111 0 0 0 1.175-8.857s-26.5-9.14-36.327-12.742c-7.1-2.6-16.6-7.087-23.461-7.088-2.632 0-4.878.659-6.454 2.336" class="cls-1" transform="translate(-271.693 -500.12)"/>
        </clipPath>
        <style>
            .cls-1,.cls-13,.cls-8{fill:none}.cls-2{fill:#373d20}.cls-5{fill:#ec8077}.cls-7{fill:#606232}.cls-13,.cls-8{stroke:#262727;stroke-miterlimit:10}.cls-8{stroke-width:.656px}.cls-9{fill:#afac75}.cls-10{fill:#e38570}.cls-11{fill:#a1424f}.cls-12{fill:#fff}.cls-13{stroke-linecap:round;stroke-width:1.763px}.cls-18{fill:#0c0c0c}
        </style>
    </defs>
    <g id="img_server-error" transform="translate(-64.814 617.837)">
        <path id="Rectangle_1524" d="M0 0H200V154H0z" class="cls-1" transform="translate(64.814 -617.837)"/>
        <g id="Group_5286" transform="translate(64.814 -610.837)">
            <g id="Group_5282" transform="translate(110.362 0)">
                <path id="Path_12822" d="M419.551 279.672l10.832 17.341-5.767 4.26-12.7-15.96zm14.627 21.957a3.846 3.846 0 0 1 .68 1.474 4.271 4.271 0 0 1 .057 1.56 4.144 4.144 0 0 1-.519 1.467 3.888 3.888 0 0 1-1.072 1.19 3.948 3.948 0 0 1-1.469.687 4.1 4.1 0 0 1-3.021-.454 3.931 3.931 0 0 1-1.2-1.088 4.116 4.116 0 0 1-.762-3.037 4.3 4.3 0 0 1 .513-1.476 3.952 3.952 0 0 1 2.544-1.876 4.273 4.273 0 0 1 1.561-.055 4.2 4.2 0 0 1 1.486.53 3.936 3.936 0 0 1 1.206 1.08z" class="cls-2" transform="translate(-411.914 -270.101)"/>
                <path id="Path_12823" d="M473.944 279.679l-6.546.231a10.8 10.8 0 0 1 .111-3.445 7.426 7.426 0 0 1 .916-2.339 6.028 6.028 0 0 1 1.36-1.542 15.459 15.459 0 0 1 1.495-1.042q.73-.442 1.288-.85a2 2 0 0 0 .748-1 1.625 1.625 0 0 0 .049-.807 1.685 1.685 0 0 0-.428-.848 2.582 2.582 0 0 0-1.032-.648 4.518 4.518 0 0 0-1.743-.22 13.09 13.09 0 0 0-1.648.186 17.842 17.842 0 0 0-1.991.459 19.166 19.166 0 0 0-2.04.712 11.151 11.151 0 0 0-1.8.927l-1.12-7.562q.7-.451 1.585-.936a14.372 14.372 0 0 1 1.956-.884 17.684 17.684 0 0 1 2.342-.674 15.3 15.3 0 0 1 2.742-.331 15.086 15.086 0 0 1 4.525.5 11.12 11.12 0 0 1 3.777 1.806 9.31 9.31 0 0 1 2.628 3.059 9.5 9.5 0 0 1 1.081 4.257 7.026 7.026 0 0 1-.417 2.972 5.537 5.537 0 0 1-1.271 1.874 7.9 7.9 0 0 1-1.777 1.265q-.99.52-1.929 1.126a8.48 8.48 0 0 0-1.712 1.466 5.429 5.429 0 0 0-1.151 2.288m1.148 5.078a3.835 3.835 0 0 1-.273 1.6 4.265 4.265 0 0 1-.837 1.323 4.139 4.139 0 0 1-1.255.913 4.06 4.06 0 0 1-3.156.111 4.1 4.1 0 0 1-2.238-2.084 3.953 3.953 0 0 1-.375-1.58 4.129 4.129 0 0 1 1.088-2.937 4.283 4.283 0 0 1 1.258-.927 3.854 3.854 0 0 1 1.577-.384 3.8 3.8 0 0 1 1.58.273 4.191 4.191 0 0 1 2.247 2.111 3.937 3.937 0 0 1 .386 1.582z" class="cls-2" transform="translate(-438.515 -259.056)"/>
            </g>
            <path id="Path_12824" fill="#2c2e17" d="M373.129 569.535H175.24a1.048 1.048 0 0 1-1.055-1.042v-.007a1.049 1.049 0 0 1 1.049-1.049h197.9a1.049 1.049 0 0 1 1.055 1.043v.006a1.049 1.049 0 0 1-1.049 1.049z" transform="translate(-174.185 -424.276)"/>
            <path id="Path_12825" fill="#07315e" d="M304.229 533.879c2.252 1.813 8.681 9.092 33.239 9.092 6.85 0 14.248.286 20.258-1.344a125.987 125.987 0 0 0 25.706-9.867l-30.047-10.226-26.938.153z" transform="translate(-243.858 -399.683)"/>
            <path id="Path_12826" d="M335.2 538.877l-11.746 2.238.425 6.4 13.17-.324z" class="cls-5" transform="translate(-254.157 -408.974)"/>
            <path id="Path_12827" fill="#16263f" d="M348.753 520.331s28.484-8.055 37.335-10.3c10.141-2.579 25.525-9.574 30.711-3.089s-1.14 15.122-15.17 18.906-52.419 3.415-52.419 3.415z" transform="translate(-267.713 -390.426)"/>
            <path id="Path_12828" d="M299.146 535.271a15.811 15.811 0 0 0-.387 4.587c.073 3.116 1.651 5.48 1.812 10.025a15.168 15.168 0 0 0 1.678-7.613 9.228 9.228 0 0 0-3.1-7" class="cls-7" transform="translate(-240.911 -407.042)"/>
            <path id="Path_12829" d="M319.762 545.99c-1.84.2-4.917 1.634-6.8 2.633s-2.895 2.045-6.262 2.021c0 0-.013-8.9-.373-11.655s-.917-3.226-.917-3.226a14.974 14.974 0 0 1 4.671 1.03 7.043 7.043 0 0 0 4.461 1.319c2.736.1 3.856.253 5.049.232a7.586 7.586 0 0 1 .176 7.646" class="cls-7" transform="translate(-244.489 -407.306)"/>
            <path id="Path_12830" d="M318.627 551.079s1.049-4.622-.486-7.784" class="cls-8" transform="translate(-251.312 -411.341)"/>
            <path id="Path_12831" d="M322.785 550.961a11.151 11.151 0 0 0-.476-6.875" class="cls-8" transform="translate(-253.545 -411.765)"/>
            <path id="Path_12832" d="M327.667 550.31a8.937 8.937 0 0 0-.3-5.817" class="cls-8" transform="translate(-256.254 -411.983)"/>
            <path id="Path_12833" d="M303.579 550.068c-1.065-.021-2.367-.051-2.548-.5s1.065-3.1.57-8.368c-.266-2.831-2.251-6.15-1.992-6.243s1.814-.678 2.682.226 5.265 6.681 1.288 14.882" class="cls-9" transform="translate(-241.37 -406.73)"/>
            <path id="Path_12834" d="M460.245 360.224a40.806 40.806 0 0 0 15.887-21.809 26.264 26.264 0 0 0 1.416-8.914c-2.166-1.825-1.939-5.271-3.915-7.412-2.778-3.01-5.266-6.83.167-6.83 3.031 0 5.819.123 7.309 1.565a23.881 23.881 0 0 1 3.826 5.7c.926 2.662-.149 6.016-.264 10.068s-2.778 29.4-22.338 40.053z" class="cls-10" transform="translate(-327.446 -289.168)"/>
            <path id="Path_12835" d="M363.767 390.98a38.68 38.68 0 0 1-.369 4.585c-.283 1.338 0 2.044-4.09 2.75 0 0 1.661 5.359 8.749 6.276s9.98-4.654 9.768-4.654a14.851 14.851 0 0 1-2.82-1.222c-.635-.412-.166-8.229-.166-8.229z" class="cls-10" transform="translate(-273.368 -329.472)"/>
            <path id="Path_12836" d="M379.774 392.465s-.866 2.747-5.168 3.031-5.905-2.431-5.905-2.431l.1-2.083 11.071-.494z" class="cls-11" transform="translate(-278.4 -329.473)"/>
            <path id="Path_12837" d="M343.817 406.55c.5 2.02 3.356 5.221 7.506 5.415s7.578-2.593 8.144-3.821c3.46.321 7.865 1.259 9.344 1.531 2.1.379 4.122 2.247 3.374 8.138-.726 5.72-5.264 41.882-5.264 41.882s-12 4.655-28.211.388c0 0-9.813-39.251-10.685-42.646s-1.94-6.984 1.164-8.051 14.63-2.837 14.63-2.837" class="cls-12" transform="translate(-256.119 -338.078)"/>
            <path id="Path_12838" d="M365.638 484.143c.228.045.46.08.691.1 2.287.24 1.247-2.344.525-3.361-1.1-1.555-8.7-7.446-8.7-7.446l-5.909.5-6.658 2.743-2.736 2.124 1.586 6.339c2.488-1.559 8.506-5.256 9.842-5.379a4.768 4.768 0 0 1 2.342.536c1.084.467 2.17.891 3.278 1.295q.758.264 1.487.6c.871.42 1.66 1 2.538 1.4a7.541 7.541 0 0 0 1.719.543" class="cls-7" transform="translate(-264.548 -373.916)"/>
            <path id="Line_33" d="M0 0L4.307 2.054" class="cls-13" transform="translate(126.629 97.854)"/>
            <path id="Line_34" d="M0 0L4.307 2.054" class="cls-13" transform="translate(124.808 101.427)"/>
            <path id="Path_12839" d="M313.51 484.971c5.663.825 15.7 1.027 24.569-7 7.142-6.463 13.656-18.8 30.241-13.376" class="cls-8" transform="translate(-248.831 -368.459)"/>
            <path id="Path_12840" d="M437.974 462.586c1.958 1.036-2.049 8.611-4.01 7.574l-2.726-1.442a4.285 4.285 0 1 1 4.008-7.574z" class="cls-7" transform="translate(-310.683 -367.061)"/>
            <path id="Path_12841" d="M301.7 425.438s-13.418 24.252-15.858 28.342a12.922 12.922 0 0 0-1.435 9.83c.5 1.147 7.463 1.938 13.849-.5s22.829-10.793 24.048-11.438a29.775 29.775 0 0 0 3.131 1.771c2.194 1.039 3.972 1.083 5.393 2.16s2.982 3.127 5.73 1.8c1.636-.789-1.992-5.879-3.617-8.688-1.588-1.363-7.259-3.707-10.1-3.3-4.021.573-24.215 7.446-24.215 7.446l7.317-12.624z" class="cls-10" transform="translate(-233.025 -348.198)"/>
            <path id="Path_12842" d="M315.443 412.175c-3.294 1.036-4.564 2.649-7.788 8.511s-7.485 12.992-7.485 12.992a17.907 17.907 0 0 0 11.1 6.934l5.183-8.756z" class="cls-12" transform="translate(-241.683 -341.092)"/>
            <path id="Path_12843" d="M416.929 412.658c3.941.642 13.972 3.585 20.107-.541a24.01 24.01 0 0 1 3.356 13.934 24.916 24.916 0 0 1-21.313 4.439z" class="cls-12" transform="translate(-304.239 -341.061)"/>
            <path id="Path_12844" d="M416.575 542.828L428.111 546l-.936 6.345-13.1-1.377z" class="cls-5" transform="translate(-302.71 -411.091)"/>
            <path id="Path_12845" fill="#6aa3d9" d="M340.291 519.95s-26.5-9.141-36.327-12.742-24.226-10.8-29.915-4.751-.936 15.057 12.746 19.953 52.322 6.4 52.322 6.4a17.13 17.13 0 0 0 1.174-8.857" transform="translate(-226.426 -388.21)"/>
            <path id="Path_12846" d="M464.368 543.16a15.784 15.784 0 0 1 .019 4.6c-.323 3.1-2.084 5.33-2.608 9.848a15.183 15.183 0 0 1-1.065-7.723 9.228 9.228 0 0 1 3.655-6.728" class="cls-7" transform="translate(-327.636 -411.269)"/>
            <path id="Path_12847" d="M429.55 552.223c1.819.343 4.77 2.021 6.572 3.168s2.726 2.271 6.082 2.517c0 0 .726-8.873 1.305-11.588s1.172-3.146 1.172-3.146a14.945 14.945 0 0 0-4.738.653 7.047 7.047 0 0 1-4.552.958c-2.736-.112-3.865-.057-5.053-.174a7.591 7.591 0 0 0-.788 7.613" class="cls-7" transform="translate(-310.638 -411.274)"/>
            <path id="Path_12848" d="M447.1 557.395s-.672-4.691 1.106-7.72" class="cls-8" transform="translate(-320.339 -414.76)"/>
            <path id="Path_12849" d="M443.02 556.946a11.157 11.157 0 0 1 1.024-6.817" class="cls-8" transform="translate(-318.137 -415.003)"/>
            <path id="Path_12850" d="M438.477 555.915a8.938 8.938 0 0 1 .766-5.768" class="cls-8" transform="translate(-315.689 -415.012)"/>
            <path id="Path_12851" d="M456.268 557.451c1.064.066 2.364.14 2.579-.29s-.813-3.179.1-8.39c.492-2.8 2.735-5.95 2.488-6.064s-1.755-.82-2.691.012-5.788 6.243-2.48 14.731" class="cls-9" transform="translate(-324.705 -410.819)"/>
            <path id="Path_12852" fill="#356795" d="M340.266 532.56h-.6s-17.275-1.122-35.774-4.173c-18.172-3-30.457-9.108-32.106-13.6-.809 5.438 4.426 11.689 15.014 15.478 13.682 4.9 52.322 6.4 52.322 6.4a17.476 17.476 0 0 0 1.14-4.1" transform="translate(-226.434 -396.066)"/>
            <g id="Group_5284" transform="translate(45.266 111.91)">
                <g id="Group_5283" clip-path="url(#clip-path)">
                    <path id="Path_12853" fill="none" stroke="#133c63" stroke-miterlimit="10" stroke-width="0.656px" d="M410.254 539.485a46.526 46.526 0 0 1-1.573 11.067" transform="translate(-345.086 -521.21)"/>
                </g>
            </g>
            <path id="Path_12855" d="M335.242 438.962a27.876 27.876 0 0 0 .652-13.524s2.582 9.833-.219 15.251z" class="cls-7" transform="translate(-260.474 -348.198)"/>
            <path id="Path_12856" d="M420.88 437.84a39.661 39.661 0 0 0-.6-12s1.638 3.332 1.553 12.207z" class="cls-7" transform="translate(-306.037 -348.411)"/>
            <g id="Group_5285" transform="translate(67.881 27.194)">
                <path id="Path_12857" d="M356.644 333.927c.843.578 6.493 2.046 6.605 3.071 0 0-1.858 7.267.045 8.624 5.148 3.667 6.8 10.855 6.8 10.855s-13.579 10.168-49.679-.508c0 0-.432-4.325 6.133-7.464a10.33 10.33 0 0 0 4.593-4.081 7.927 7.927 0 0 0 1.156-3.3c.6-3.564 10.439-16.743 24.351-7.2" class="cls-18" transform="translate(-320.405 -324.54)"/>
                <path id="Path_12858" d="M379.671 378.137l-.6 9.415c-.2 3.307-1.555 5.559-4.808 5.333-2.777-.194-6.081-2.418-6.233-5.2l1.655-14.771z" class="cls-10" transform="translate(-345.922 -347.253)"/>
                <path id="Path_12859" d="M397.307 356.67a4.329 4.329 0 1 0 4.619-4.018 4.329 4.329 0 0 0-4.619 4.018" class="cls-11" transform="translate(-361.601 -336.39)"/>
                <path id="Path_12860" d="M373.514 352.157c5.562.016 10.156-4.363 10.322-8.906l.328-10.719a10.56 10.56 0 0 0-9.82-10.921c-5.817-.4-11.881 3.913-12.286 9.731l-.169 8.624c-.132 6.67 4.971 11.728 11.626 12.191" class="cls-10" transform="translate(-342.629 -319.752)"/>
                <path id="Path_12861" d="M378.389 345.881s2.992-.747 3.225.482c0 0 .135.836-2.483 1.437s-3.338.52-3.709-.226 1.547-1.452 2.967-1.694" transform="translate(-349.856 -332.647)"/>
                <path id="Path_12862" d="M402.226 349.473s-1.529-1.764-2.473-1.116c0 0-.626.452.746 1.964s2 1.773 2.479 1.341c.57-.516.047-1.42-.752-2.189" transform="translate(-362.84 -334.018)"/>
                <path id="Path_12863" d="M362.242 317.653a13.318 13.318 0 0 1 4.127.436c3.332.887 9.315 3.355 10.34 9.754a4.483 4.483 0 0 1 .1 2.252s-11.174.439-17.78-2.68a18.025 18.025 0 0 1-5.806 10.436l-3.53-5.306-3.973 3.564c-.026.135-.021-17.576 16.517-18.455" class="cls-18" transform="translate(-333.97 -317.635)"/>
                <path id="Path_12864" d="M349.392 356.763a4.329 4.329 0 1 0 4.619-4.017 4.329 4.329 0 0 0-4.619 4.017" class="cls-10" transform="translate(-335.93 -336.44)"/>
                <path id="Path_12865" d="M355.177 356.474a2.277 2.277 0 0 1 1.894.707c.145.193-.243.415-.4.308-.9-.616-2.1-.971-2.873.063-.04.056-.068-.02-.05-.059a1.666 1.666 0 0 1 1.43-1.018" class="cls-11" transform="translate(-338.266 -338.437)"/>
                <path id="Path_12866" d="M356.136 356.924c.124-.025.3.312.262.383a1.372 1.372 0 0 0-.658.338 1.85 1.85 0 0 0-.516 1.06 2.06 2.06 0 0 0 1.114 2.318c.018.009.033.066 0 .066-.89 0-1.621-1.1-1.625-1.9a2.123 2.123 0 0 1 1.422-2.261" class="cls-11" transform="translate(-338.787 -338.684)"/>
                <path id="Path_12867" d="M392.193 357.974c.584.155 1.005 6.1.2 6.951a1.866 1.866 0 0 1-2.959-.568c-.435-1.085 2.166-6.454 2.759-6.383" class="cls-11" transform="translate(-357.362 -339.247)"/>
            </g>
        </g>
    </g>
</svg>
