<svg xmlns="http://www.w3.org/2000/svg" width="200.87" height="154.242" viewBox="0 0 200.87 154.242">
    <defs>
        <clipPath id="clip-path">
            <path id="Path_12948" d="M321.265 502.91c-5.689 6.05-.937 15.057 12.746 19.953s52.322 6.4 52.322 6.4a17.121 17.121 0 0 0 1.175-8.857s-26.5-9.14-36.327-12.742c-7.1-2.6-16.6-7.087-23.461-7.088-2.632 0-4.877.658-6.454 2.336" class="cls-1" transform="translate(-318.908 -500.574)"/>
        </clipPath>
        <style>
            .cls-1,.cls-12,.cls-15,.cls-2{fill:none}.cls-15,.cls-2{stroke:#262727}.cls-12,.cls-15,.cls-2{stroke-miterlimit:10}.cls-2{stroke-width:.656px}.cls-3{fill:#606232}.cls-4{fill:#afac75}.cls-5{fill:#262727}.cls-8{fill:#ec8077}.cls-10{fill:#e38570}.cls-11{fill:#a1424f}.cls-12{stroke:#0c0c0c;stroke-width:1.44px}.cls-12,.cls-15{stroke-linecap:round}.cls-14{fill:#fff}.cls-15{stroke-width:1.763px}.cls-20{fill:#373d20}
        </style>
    </defs>
    <g id="img_network-error" transform="translate(-64.813 617.837)">
        <path id="Rectangle_1524" d="M0 0H200.87V154H0z" class="cls-1" transform="translate(64.813 -617.837)"/>
        <g id="Group_5302" transform="translate(64.813 -592.837)">
            <g id="Group_5295" transform="translate(123.387 11.27)">
                <path id="Path_12902" d="M501.008 327.712s9.162-11.054 26.728-4.01 26.643 48.145-6.147 87.659" class="cls-2" transform="translate(-494.591 -321.355)"/>
                <path id="Path_12903" d="M495.262 341.5c-.8 2.065-8.789-1.043-7.986-3.109l1.119-2.875a4.284 4.284 0 0 1 5.545-2.44 4.284 4.284 0 0 1 2.439 5.547z" class="cls-3" transform="translate(-487.203 -327.478)"/>
                <path id="Path_12904" d="M487.257 344.426c-.911 2.021 7.183 5.173 7.986 3.109.61-1.594-7.329-4.562-7.986-3.109" class="cls-4" transform="translate(-487.185 -333.507)"/>
                <path id="Path_12905" d="M492.492 347.342c-.087.258-.469.363-.854.233s-.629-.446-.539-.7.469-.363.854-.233.626.445.539.7" class="cls-5" transform="translate(-489.272 -334.871)"/>
                <path id="Path_12906" d="M498.608 349.608c-.087.258-.47.363-.854.233s-.63-.445-.538-.7.468-.363.854-.233.625.441.538.7" class="cls-5" transform="translate(-492.549 -336.086)"/>
            </g>
            <path id="Path_12907" fill="#2c2e17" d="M420.346 569.989h-197.89a1.049 1.049 0 0 1-1.055-1.043v-.006a1.048 1.048 0 0 1 1.048-1.049h197.9a1.049 1.049 0 0 1 1.055 1.042v.006a1.049 1.049 0 0 1-1.049 1.049z" transform="translate(-221.401 -442.171)"/>
            <path id="Path_12908" fill="#07315e" d="M351.445 534.333c2.252 1.813 8.681 9.093 33.239 9.093 6.85 0 14.248.286 20.258-1.344a126.031 126.031 0 0 0 25.707-9.867L400.6 521.988l-26.938.153z" transform="translate(-291.074 -417.577)"/>
            <path id="Path_12909" d="M382.413 539.33l-11.746 2.238.425 6.4 13.17-.324z" class="cls-8" transform="translate(-301.373 -426.869)"/>
            <path id="Path_12910" fill="#16263f" d="M395.969 520.785s28.484-8.055 37.335-10.3c10.141-2.579 25.526-9.574 30.712-3.089s-1.14 15.122-15.17 18.906-52.419 3.415-52.419 3.415z" transform="translate(-314.928 -408.321)"/>
            <path id="Path_12911" d="M346.362 535.725a15.8 15.8 0 0 0-.387 4.587c.073 3.116 1.651 5.48 1.812 10.025a15.17 15.17 0 0 0 1.678-7.613 9.229 9.229 0 0 0-3.1-7" class="cls-3" transform="translate(-288.127 -424.937)"/>
            <path id="Path_12912" d="M366.979 546.443c-1.84.2-4.917 1.634-6.8 2.634s-2.895 2.045-6.263 2.021c0 0-.013-8.9-.373-11.655s-.916-3.226-.916-3.226a14.96 14.96 0 0 1 4.67 1.03 7.049 7.049 0 0 0 4.461 1.32c2.736.1 3.856.253 5.05.231a7.587 7.587 0 0 1 .175 7.646" class="cls-3" transform="translate(-291.704 -425.2)"/>
            <path id="Path_12913" d="M365.843 551.533s1.048-4.621-.486-7.784" class="cls-2" transform="translate(-298.527 -429.236)"/>
            <path id="Path_12914" d="M370 551.415a11.147 11.147 0 0 0-.476-6.875" class="cls-2" transform="translate(-300.76 -429.66)"/>
            <path id="Path_12915" d="M374.882 550.764a8.938 8.938 0 0 0-.3-5.818" class="cls-2" transform="translate(-303.469 -429.877)"/>
            <path id="Path_12916" d="M350.794 550.522c-1.065-.021-2.367-.051-2.547-.5s1.065-3.1.569-8.368c-.266-2.831-2.25-6.15-1.992-6.243s1.815-.677 2.683.227 5.264 6.681 1.288 14.882" class="cls-4" transform="translate(-288.585 -424.625)"/>
            <path id="Path_12917" d="M507.46 360.678a40.806 40.806 0 0 0 15.888-21.808 26.261 26.261 0 0 0 1.415-8.914c-2.166-1.825-1.938-5.271-3.915-7.412-2.778-3.01-5.267-6.83.167-6.83 3.03 0 5.818.123 7.309 1.564a23.883 23.883 0 0 1 3.825 5.7c.927 2.663-.149 6.017-.264 10.068s-2.778 29.4-22.338 40.053z" class="cls-10" transform="translate(-374.661 -307.062)"/>
            <path id="Path_12918" d="M410.983 391.434a38.669 38.669 0 0 1-.369 4.585c-.283 1.338 0 2.044-4.09 2.749 0 0 1.661 5.36 8.749 6.276s9.98-4.654 9.768-4.654a14.9 14.9 0 0 1-2.82-1.221c-.634-.412-.165-8.229-.165-8.229z" class="cls-10" transform="translate(-320.583 -347.366)"/>
            <path id="Path_12919" d="M426.99 392.919s-.866 2.748-5.168 3.031-5.906-2.431-5.906-2.431l.1-2.083 11.071-.494z" class="cls-11" transform="translate(-325.615 -347.367)"/>
            <path id="Path_12920" d="M397.47 366.6s-2.224-.349-3.2 1.286.244 4.693 2.559 5.2c2.218.489 2.946-.755 2.946-.755z" class="cls-10" transform="translate(-313.836 -334.308)"/>
            <path id="Path_12921" d="M396.382 369.885a2.045 2.045 0 0 1 1.817-.039c.185.111-.065.428-.234.389-.954-.215-2.072-.112-2.377 1.01-.016.061-.064.007-.062-.033a1.5 1.5 0 0 1 .856-1.327" class="cls-11" transform="translate(-314.691 -335.961)"/>
            <path id="Path_12922" d="M397.536 370.2c.094-.062.358.159.346.231a1.252 1.252 0 0 0-.437.5 1.653 1.653 0 0 0-.078 1.057 1.851 1.851 0 0 0 1.7 1.564c.016 0 .048.045.024.053a1.775 1.775 0 0 1-1.992-1.048 1.9 1.9 0 0 1 .434-2.362" class="cls-11" transform="translate(-315.409 -336.248)"/>
            <path id="Path_12923" d="M447.867 357.153s1.94-1.149 3.453.009 1.51 4.448-.451 5.779c-1.879 1.275-3.017.39-3.017.39z" class="cls-10" transform="translate(-342.725 -328.992)"/>
            <path id="Path_12924" d="M451.083 359.441a2.05 2.05 0 0 0-1.7.636c-.13.173.22.374.361.277.806-.553 1.888-.873 2.583.057.037.05.062-.018.045-.054a1.5 1.5 0 0 0-1.286-.915" class="cls-11" transform="translate(-343.529 -330.484)"/>
            <path id="Path_12925" d="M451.954 359.845c-.111-.022-.274.281-.236.344a1.234 1.234 0 0 1 .591.3 1.656 1.656 0 0 1 .464.953 1.851 1.851 0 0 1-1 2.083c-.016.009-.029.06 0 .06.8 0 1.458-.993 1.462-1.712a1.909 1.909 0 0 0-1.279-2.033" class="cls-11" transform="translate(-344.794 -330.706)"/>
            <path id="Path_12926" d="M414.358 333.821a10.424 10.424 0 0 0-5.337-.441 10.681 10.681 0 0 0-4.9 2.318 11.888 11.888 0 0 0-3.69 11.282v.02a30.579 30.579 0 0 0 .881 3.482l.5 1.6a25.061 25.061 0 0 0 2.714 5.828 9.593 9.593 0 0 0 17.741-3.4 25.107 25.107 0 0 0 .363-6.419l-.123-1.671a30.5 30.5 0 0 0-.473-3.565v-.02a11.825 11.825 0 0 0-7.682-9.007" class="cls-10" transform="translate(-317.184 -316.44)"/>
            <path id="Path_12927" d="M426.519 361.946c-.525.14-.9 5.489-.179 6.25a1.678 1.678 0 0 0 2.661-.511c.391-.976-1.947-5.8-2.481-5.74" class="cls-11" transform="translate(-330.985 -331.832)"/>
            <path id="Path_12928" d="M388.417 341.045s4.115-.8 5.682 1.309" class="cls-12" transform="translate(-310.882 -320.554)"/>
            <path id="Path_12929" d="M388.169 332.491s5.107.859 5.873 5.742" class="cls-12" transform="translate(-310.749 -316.051)"/>
            <path id="Path_12930" fill="#0c0c0c" d="M397.708 331.51a15 15 0 0 0 7.612 5.615c4.732 1.28 7.407-4.2 6.927-6.69 0 0 4.628 7.446 5.664 7.426a15.455 15.455 0 0 0 .759-6.36 8.2 8.2 0 0 0-3.67-6.265 3.349 3.349 0 0 0-3.88-.042 8.247 8.247 0 0 0-8.39-4.492c-5.586.629-7.761 4.482-6.943 10.369a2.967 2.967 0 0 0-3.356 1.844c-1.259 2.433.142 7.161 1.812 9.4a6.373 6.373 0 0 1 2.155-.325 16.706 16.706 0 0 1-.06-7.308c.759-2.778 1.371-3.174 1.371-3.174" transform="translate(-312.772 -309.701)"/>
            <path id="Path_12931" d="M391.033 407c.5 2.02 3.356 5.221 7.505 5.415s7.578-2.594 8.144-3.821c3.461.321 7.866 1.258 9.344 1.53 2.1.38 4.122 2.247 3.374 8.139-.726 5.719-5.264 41.882-5.264 41.882s-12 4.655-28.211.388c0 0-9.813-39.25-10.686-42.646s-1.94-6.984 1.164-8.051 14.63-2.836 14.63-2.836" class="cls-14" transform="translate(-303.334 -355.973)"/>
            <path id="Path_12932" d="M412.854 484.6c.228.046.459.08.691.1 2.286.24 1.247-2.344.525-3.361-1.1-1.554-8.7-7.446-8.7-7.446l-5.91.5-6.658 2.743-2.736 2.124c.552 2.209 1.09 4.355 1.585 6.339 2.489-1.56 8.506-5.256 9.842-5.379a4.77 4.77 0 0 1 2.342.536c1.083.468 2.17.891 3.278 1.3q.758.263 1.487.6c.87.42 1.66 1 2.538 1.4a7.541 7.541 0 0 0 1.719.543" class="cls-3" transform="translate(-311.763 -391.811)"/>
            <path id="Line_36" d="M0 0L4.307 2.054" class="cls-15" transform="translate(126.629 80.414)"/>
            <path id="Line_37" d="M0 0L4.307 2.054" class="cls-15" transform="translate(124.809 83.987)"/>
            <path id="Path_12933" d="M360.726 485.425c5.663.825 15.7 1.027 24.568-7 7.142-6.463 13.656-18.8 30.242-13.377" class="cls-2" transform="translate(-296.046 -386.353)"/>
            <path id="Path_12934" d="M485.189 463.039c1.958 1.036-2.049 8.612-4.009 7.574l-2.727-1.442a4.284 4.284 0 0 1 4.008-7.574z" class="cls-3" transform="translate(-357.898 -384.955)"/>
            <path id="Path_12935" d="M348.919 425.892s-13.417 24.252-15.858 28.342a12.924 12.924 0 0 0-1.436 9.83c.5 1.148 7.463 1.938 13.849-.5s22.829-10.794 24.048-11.438a29.811 29.811 0 0 0 3.132 1.771c2.194 1.039 3.972 1.084 5.393 2.16s2.982 3.127 5.731 1.8c1.636-.79-1.993-5.879-3.617-8.688-1.588-1.363-7.259-3.707-10.1-3.3-4.021.572-24.215 7.446-24.215 7.446l7.317-12.625z" class="cls-10" transform="translate(-280.241 -366.092)"/>
            <path id="Path_12936" d="M362.658 412.629c-3.294 1.035-4.564 2.649-7.788 8.511s-7.485 12.992-7.485 12.992a17.906 17.906 0 0 0 11.1 6.934l5.183-8.756z" class="cls-14" transform="translate(-288.899 -358.986)"/>
            <path id="Path_12937" d="M464.145 413.111c3.941.642 13.972 3.585 20.107-.541a24.008 24.008 0 0 1 3.355 13.934 24.915 24.915 0 0 1-21.313 4.439z" class="cls-14" transform="translate(-351.454 -358.955)"/>
            <path id="Path_12938" d="M463.791 543.282l11.536 3.169-.936 6.345-13.1-1.377z" class="cls-8" transform="translate(-349.925 -428.985)"/>
            <path id="Path_12939" fill="#6aa3d9" d="M387.507 520.4s-26.5-9.141-36.327-12.742-24.226-10.8-29.915-4.752-.936 15.057 12.745 19.953 52.323 6.4 52.323 6.4a17.122 17.122 0 0 0 1.174-8.857" transform="translate(-273.642 -406.104)"/>
            <path id="Path_12940" d="M511.584 543.614a15.8 15.8 0 0 1 .019 4.6c-.323 3.1-2.085 5.329-2.608 9.847a15.175 15.175 0 0 1-1.065-7.723 9.227 9.227 0 0 1 3.655-6.728" class="cls-3" transform="translate(-374.851 -429.164)"/>
            <path id="Path_12941" d="M476.766 552.676c1.818.343 4.77 2.021 6.571 3.168s2.727 2.271 6.083 2.517c0 0 .726-8.873 1.305-11.588s1.172-3.147 1.172-3.147a14.958 14.958 0 0 0-4.738.654 7.044 7.044 0 0 1-4.552.957c-2.737-.112-3.865-.056-5.053-.174a7.592 7.592 0 0 0-.787 7.613" class="cls-3" transform="translate(-357.854 -429.168)"/>
            <path id="Path_12942" d="M494.32 557.848s-.672-4.691 1.106-7.719" class="cls-2" transform="translate(-367.554 -432.654)"/>
            <path id="Path_12943" d="M490.236 557.4a11.152 11.152 0 0 1 1.024-6.816" class="cls-2" transform="translate(-365.352 -432.897)"/>
            <path id="Path_12944" d="M485.692 556.369a8.937 8.937 0 0 1 .766-5.768" class="cls-2" transform="translate(-362.904 -432.907)"/>
            <path id="Path_12945" d="M503.484 557.9c1.064.066 2.364.14 2.579-.29s-.813-3.179.1-8.39c.492-2.8 2.735-5.951 2.488-6.064s-1.755-.82-2.691.012-5.788 6.243-2.48 14.732" class="cls-4" transform="translate(-371.92 -428.713)"/>
            <path id="Path_12946" fill="#356795" d="M387.481 533.013h-.6s-17.275-1.122-35.775-4.173c-18.172-3-30.457-9.108-32.107-13.6-.809 5.438 4.427 11.689 15.014 15.478 13.682 4.9 52.323 6.4 52.323 6.4a17.481 17.481 0 0 0 1.14-4.1" transform="translate(-273.65 -413.96)"/>
            <g id="Group_5297" transform="translate(45.266 94.47)">
                <g id="Group_5296" clip-path="url(#clip-path)" transform="translate(0 0)">
                    <path id="Path_12947" fill="none" stroke="#133c63" stroke-miterlimit="10" stroke-width="0.656px" d="M457.47 539.938A46.551 46.551 0 0 1 455.9 551" transform="translate(-392.302 -521.664)"/>
                </g>
            </g>
            <path id="Path_12949" d="M382.458 439.416a27.882 27.882 0 0 0 .652-13.524s2.582 9.833-.22 15.251z" class="cls-3" transform="translate(-307.69 -366.092)"/>
            <path id="Path_12950" d="M468.1 438.294a39.661 39.661 0 0 0-.6-12s1.638 3.332 1.553 12.207z" class="cls-3" transform="translate(-353.252 -366.306)"/>
            <g id="Group_5301" transform="translate(15.57 0)">
                <path id="Path_12951" d="M299.424 358.119a2.968 2.968 0 1 0 2.1.87 2.992 2.992 0 0 0-2.1-.87z" class="cls-4" transform="translate(-277.183 -329.782)"/>
                <g id="Group_5298">
                    <path id="Path_12952" d="M273.63 297.079a31.382 31.382 0 0 0-18.689 9.02l4.2 4.2a25.451 25.451 0 0 1 14.489-7.236z" class="cls-20" transform="translate(-254.941 -297.079)"/>
                    <path id="Path_12953" d="M310.812 297.091v5.982a25.451 25.451 0 0 1 14.441 7.231l4.2-4.2a31.381 31.381 0 0 0-18.641-9.013z" class="cls-20" transform="translate(-284.875 -297.085)"/>
                </g>
                <g id="Group_5299" transform="translate(6.73 9.605)">
                    <path id="Path_12954" d="M281.4 317.769a21.9 21.9 0 0 0-11.959 6.143l4.2 4.2a15.97 15.97 0 0 1 7.759-4.294z" class="cls-20" transform="translate(-269.437 -317.769)"/>
                    <path id="Path_12955" d="M310.812 317.787v6.052a15.962 15.962 0 0 1 7.71 4.284l4.2-4.2a21.9 21.9 0 0 0-11.91-6.136z" class="cls-20" transform="translate(-291.604 -317.779)"/>
                </g>
                <g id="Group_5300" transform="translate(13.459 19.35)">
                    <path id="Path_12956" d="M289.163 338.761a12.433 12.433 0 0 0-5.23 3.128l4.2 4.2a6.59 6.59 0 0 1 1.03-.839z" class="cls-20" transform="translate(-283.933 -338.761)"/>
                    <path id="Path_12957" d="M310.812 338.795v6.51a6.594 6.594 0 0 1 .98.8l4.2-4.2a12.442 12.442 0 0 0-5.18-3.11z" class="cls-20" transform="translate(-298.334 -338.779)"/>
                </g>
                <path id="Rectangle_1586" d="M0 0H4.09V25.311H0z" class="cls-4" transform="translate(20.196 0.006)"/>
            </g>
        </g>
    </g>
</svg>
